<svg xmlns="http://www.w3.org/2000/svg" xmlns:xlink="http://www.w3.org/1999/xlink" version="1.1" class="marks" width="449" height="404" viewBox="0 0 449 404"><rect width="449" height="404" fill="white"/><g fill="none" stroke-miterlimit="10" transform="translate(42,67)"><g class="mark-group role-frame root" role="graphics-object" aria-roledescription="group mark container"><g transform="translate(0,0)"><path class="background" aria-hidden="true" d="M0.5,0.5h400v300h-400Z" stroke="#ddd"/><g><g class="mark-group role-axis" aria-hidden="true"><g transform="translate(0.5,300.5)"><path class="background" aria-hidden="true" d="M0,0h0v0h0Z" pointer-events="none"/><g><g class="mark-rule role-axis-grid" pointer-events="none"><line transform="translate(0,-300)" x2="0" y2="300" stroke="#ddd" stroke-width="1" opacity="1"/><line transform="translate(50,-300)" x2="0" y2="300" stroke="#ddd" stroke-width="1" opacity="1"/><line transform="translate(100,-300)" x2="0" y2="300" stroke="#ddd" stroke-width="1" opacity="1"/><line transform="translate(150,-300)" x2="0" y2="300" stroke="#ddd" stroke-width="1" opacity="1"/><line transform="translate(200,-300)" x2="0" y2="300" stroke="#ddd" stroke-width="1" opacity="1"/><line transform="translate(250,-300)" x2="0" y2="300" stroke="#ddd" stroke-width="1" opacity="1"/><line transform="translate(300,-300)" x2="0" y2="300" stroke="#ddd" stroke-width="1" opacity="1"/><line transform="translate(350,-300)" x2="0" y2="300" stroke="#ddd" stroke-width="1" opacity="1"/><line transform="translate(400,-300)" x2="0" y2="300" stroke="#ddd" stroke-width="1" opacity="1"/></g></g><path class="foreground" aria-hidden="true" d="" pointer-events="none" display="none"/></g></g><g class="mark-group role-axis" aria-hidden="true"><g transform="translate(0.5,0.5)"><path class="background" aria-hidden="true" d="M0,0h0v0h0Z" pointer-events="none"/><g><g class="mark-rule role-axis-grid" pointer-events="none"><line transform="translate(0,300)" x2="400" y2="0" stroke="#ddd" stroke-width="1" opacity="1"/><line transform="translate(0,270)" x2="400" y2="0" stroke="#ddd" stroke-width="1" opacity="1"/><line transform="translate(0,240)" x2="400" y2="0" stroke="#ddd" stroke-width="1" opacity="1"/><line transform="translate(0,210)" x2="400" y2="0" stroke="#ddd" stroke-width="1" opacity="1"/><line transform="translate(0,180)" x2="400" y2="0" stroke="#ddd" stroke-width="1" opacity="1"/><line transform="translate(0,150)" x2="400" y2="0" stroke="#ddd" stroke-width="1" opacity="1"/><line transform="translate(0,120)" x2="400" y2="0" stroke="#ddd" stroke-width="1" opacity="1"/><line transform="translate(0,90)" x2="400" y2="0" stroke="#ddd" stroke-width="1" opacity="1"/><line transform="translate(0,60)" x2="400" y2="0" stroke="#ddd" stroke-width="1" opacity="1"/><line transform="translate(0,30)" x2="400" y2="0" stroke="#ddd" stroke-width="1" opacity="1"/><line transform="translate(0,0)" x2="400" y2="0" stroke="#ddd" stroke-width="1" opacity="1"/></g></g><path class="foreground" aria-hidden="true" d="" pointer-events="none" display="none"/></g></g><g class="mark-group role-axis" role="graphics-symbol" aria-roledescription="axis" aria-label="X-axis titled 'Skill (θ)' for a linear scale with values from −4 to 4"><g transform="translate(0.5,300.5)"><path class="background" aria-hidden="true" d="M0,0h0v0h0Z" pointer-events="none"/><g><g class="mark-rule role-axis-tick" pointer-events="none"><line transform="translate(0,0)" x2="0" y2="5" stroke="#888" stroke-width="1" opacity="1"/><line transform="translate(50,0)" x2="0" y2="5" stroke="#888" stroke-width="1" opacity="1"/><line transform="translate(100,0)" x2="0" y2="5" stroke="#888" stroke-width="1" opacity="1"/><line transform="translate(150,0)" x2="0" y2="5" stroke="#888" stroke-width="1" opacity="1"/><line transform="translate(200,0)" x2="0" y2="5" stroke="#888" stroke-width="1" opacity="1"/><line transform="translate(250,0)" x2="0" y2="5" stroke="#888" stroke-width="1" opacity="1"/><line transform="translate(300,0)" x2="0" y2="5" stroke="#888" stroke-width="1" opacity="1"/><line transform="translate(350,0)" x2="0" y2="5" stroke="#888" stroke-width="1" opacity="1"/><line transform="translate(400,0)" x2="0" y2="5" stroke="#888" stroke-width="1" opacity="1"/></g><g class="mark-text role-axis-label" pointer-events="none"><text text-anchor="start" transform="translate(0,15)" font-family="sans-serif" font-size="10px" fill="#000" opacity="1">−4</text><text text-anchor="middle" transform="translate(50,15)" font-family="sans-serif" font-size="10px" fill="#000" opacity="1">−3</text><text text-anchor="middle" transform="translate(100,15)" font-family="sans-serif" font-size="10px" fill="#000" opacity="1">−2</text><text text-anchor="middle" transform="translate(150,15)" font-family="sans-serif" font-size="10px" fill="#000" opacity="1">−1</text><text text-anchor="middle" transform="translate(200,15)" font-family="sans-serif" font-size="10px" fill="#000" opacity="1">0</text><text text-anchor="middle" transform="translate(250,15)" font-family="sans-serif" font-size="10px" fill="#000" opacity="1">1</text><text text-anchor="middle" transform="translate(300,15)" font-family="sans-serif" font-size="10px" fill="#000" opacity="1">2</text><text text-anchor="middle" transform="translate(350,15)" font-family="sans-serif" font-size="10px" fill="#000" opacity="1">3</text><text text-anchor="end" transform="translate(400,15)" font-family="sans-serif" font-size="10px" fill="#000" opacity="1">4</text></g><g class="mark-rule role-axis-domain" pointer-events="none"><line transform="translate(0,0)" x2="400" y2="0" stroke="#888" stroke-width="1" opacity="1"/></g><g class="mark-text role-axis-title" pointer-events="none"><text text-anchor="middle" transform="translate(200,30)" font-family="sans-serif" font-size="11px" font-weight="bold" fill="#000" opacity="1">Skill (θ)</text></g></g><path class="foreground" aria-hidden="true" d="" pointer-events="none" display="none"/></g></g><g class="mark-group role-axis" role="graphics-symbol" aria-roledescription="axis" aria-label="Y-axis titled 'P(response = correct | θ)' for a linear scale with values from 0.0 to 1.0"><g transform="translate(0.5,0.5)"><path class="background" aria-hidden="true" d="M0,0h0v0h0Z" pointer-events="none"/><g><g class="mark-rule role-axis-tick" pointer-events="none"><line transform="translate(0,300)" x2="-5" y2="0" stroke="#888" stroke-width="1" opacity="1"/><line transform="translate(0,270)" x2="-5" y2="0" stroke="#888" stroke-width="1" opacity="1"/><line transform="translate(0,240)" x2="-5" y2="0" stroke="#888" stroke-width="1" opacity="1"/><line transform="translate(0,210)" x2="-5" y2="0" stroke="#888" stroke-width="1" opacity="1"/><line transform="translate(0,180)" x2="-5" y2="0" stroke="#888" stroke-width="1" opacity="1"/><line transform="translate(0,150)" x2="-5" y2="0" stroke="#888" stroke-width="1" opacity="1"/><line transform="translate(0,120)" x2="-5" y2="0" stroke="#888" stroke-width="1" opacity="1"/><line transform="translate(0,90)" x2="-5" y2="0" stroke="#888" stroke-width="1" opacity="1"/><line transform="translate(0,60)" x2="-5" y2="0" stroke="#888" stroke-width="1" opacity="1"/><line transform="translate(0,30)" x2="-5" y2="0" stroke="#888" stroke-width="1" opacity="1"/><line transform="translate(0,0)" x2="-5" y2="0" stroke="#888" stroke-width="1" opacity="1"/></g><g class="mark-text role-axis-label" pointer-events="none"><text text-anchor="end" transform="translate(-7,303)" font-family="sans-serif" font-size="10px" fill="#000" opacity="1">0.0</text><text text-anchor="end" transform="translate(-7,273)" font-family="sans-serif" font-size="10px" fill="#000" opacity="1">0.1</text><text text-anchor="end" transform="translate(-7,243)" font-family="sans-serif" font-size="10px" fill="#000" opacity="1">0.2</text><text text-anchor="end" transform="translate(-7,213)" font-family="sans-serif" font-size="10px" fill="#000" opacity="1">0.3</text><text text-anchor="end" transform="translate(-7,183)" font-family="sans-serif" font-size="10px" fill="#000" opacity="1">0.4</text><text text-anchor="end" transform="translate(-7,153)" font-family="sans-serif" font-size="10px" fill="#000" opacity="1">0.5</text><text text-anchor="end" transform="translate(-7,123)" font-family="sans-serif" font-size="10px" fill="#000" opacity="1">0.6</text><text text-anchor="end" transform="translate(-7,93.00000000000001)" font-family="sans-serif" font-size="10px" fill="#000" opacity="1">0.7</text><text text-anchor="end" transform="translate(-7,62.999999999999986)" font-family="sans-serif" font-size="10px" fill="#000" opacity="1">0.8</text><text text-anchor="end" transform="translate(-7,32.99999999999999)" font-family="sans-serif" font-size="10px" fill="#000" opacity="1">0.9</text><text text-anchor="end" transform="translate(-7,3)" font-family="sans-serif" font-size="10px" fill="#000" opacity="1">1.0</text></g><g class="mark-rule role-axis-domain" pointer-events="none"><line transform="translate(0,300)" x2="0" y2="-300" stroke="#888" stroke-width="1" opacity="1"/></g><g class="mark-text role-axis-title" pointer-events="none"><text text-anchor="middle" transform="translate(-26,150) rotate(-90) translate(0,-2)" font-family="sans-serif" font-size="11px" font-weight="bold" fill="#000" opacity="1">P(response = correct | θ)</text></g></g><path class="foreground" aria-hidden="true" d="" pointer-events="none" display="none"/></g></g><g class="mark-group role-scope layer_0_pathgroup" role="graphics-object" aria-roledescription="group mark container"><g transform="translate(0,0)"><path class="background" aria-hidden="true" d="M0,0h400v300h-400Z"/><g><g class="mark-line role-mark layer_0_marks" role="graphics-object" aria-roledescription="line mark container"><path aria-label="Discriminability (γ): γ = 1; theta: −4; p: 0.262590346973" role="graphics-symbol" aria-roledescription="line mark" d="M0,221.22289590796078L4.040404040404044,220.91119374474593L8.080808080808088,220.57432066847983L12.12121212121211,220.21033851807556L16.161616161616156,219.81717600705076L20.2020202020202,219.39262235350003L24.242424242424242,218.93432111187013L28.282828282828287,218.43976432536638L32.32323232323233,217.90628713903817L36.363636363636374,217.3310630370517L40.4040404040404,216.71109989333144L44.44444444444444,216.043237052502L48.484848484848484,215.32414368764293L52.52525252525253,214.55031871237364L56.565656565656575,213.7180925566273L60.606060606060595,212.82363114733047L64.64646464646466,211.8629424659996L68.68686868686868,210.83188608360325L72.72727272727273,209.72618609718373L76.76767676767678,208.54144791058067L80.80808080808082,207.27317931064368L84.84848484848486,205.91681628768265L88.88888888888889,204.46775403133216L92.92929292929296,202.92138349696657L96.96969696969697,201.27313387958938L101.01010101010101,199.51852124801027L105.05050505050507,197.65320347864616L109.09090909090911,195.67304148248036L113.13131313131315,193.5741665385718L117.17171717171718,191.3530533323354L121.21212121212122,189.0065980477979L125.25252525252526,186.53220058366313L129.2929292929293,183.92784965963298L133.33333333333334,181.19220926153054L137.37373737373738,178.3247045543109L141.41414141414143,175.32560508736225L145.45454545454547,172.19610284602086L149.4949494949495,168.93838248872314L153.53535353535355,165.55568097368575L157.5757575757576,162.05233374505505L161.61616161616163,158.433804736407L165.65656565656568,154.70669767509335L169.6969696969697,150.87874654321888L173.73737373737376,146.95878357015584L177.7777777777778,142.9566837871477L181.81818181818184,138.88328594513635L185.85858585858588,134.75029044978044L189.89898989898992,130.57013586027045L193.93939393939394,126.35585638133068L197.97979797979798,122.12092359747054L202.02020202020202,117.87907640252944L206.0606060606061,113.64414361866926L210.10101010101013,109.42986413972957L214.14141414141415,105.24970955021954L218.18181818181822,101.11671405486366L222.22222222222223,97.04331621285226L226.2626262626263,93.04121642984413L230.3030303030303,89.12125345678112L234.34343434343435,85.29330232490659L238.3838383838384,81.56619526359297L242.42424242424244,77.94766625494496L246.4646464646465,74.44431902631422L250.50505050505052,71.06161751127685L254.5454545454546,67.80389715397912L258.5858585858586,64.67439491263772L262.62626262626264,61.67529544568908L266.6666666666667,58.807790738469436L270.7070707070707,56.07215034036699L274.74747474747477,53.467799416336845L278.7878787878788,50.99340195220212L282.82828282828285,48.6469466676646L286.8686868686869,46.425833461428226L290.90909090909093,44.32695851751961L294.949494949495,42.346796521353845L298.989898989899,40.4814787519897L303.03030303030306,38.726866120410634L307.0707070707071,37.07861650303342L311.11111111111114,35.532245968667866L315.1515151515152,34.08318371231732L319.1919191919192,32.72682068935634L323.23232323232327,31.4585520894193L327.2727272727273,30.273813902816293L331.31313131313135,29.168113916396756L335.3535353535354,28.137057534000377L339.3939393939394,27.17636885266955L343.4343434343435,26.28190744337269L347.4747474747475,25.44968128762637L351.51515151515156,24.67585631235707L355.5555555555556,23.95676294749801L359.59595959595964,23.288900106668553L363.6363636363637,22.668936962948283L367.67676767676767,22.093712860961812L371.71717171717177,21.56023567463363L375.75757575757575,21.065678888129856L379.79797979797985,20.60737764649998L383.8383838383839,20.182823992949295L387.8787878787879,19.789661481924416L391.919191919192,19.42567933152016L395.95959595959596,19.088806255254042L400,18.77710409203923" stroke="#f58518" stroke-width="2"/></g></g><path class="foreground" aria-hidden="true" d="" display="none"/></g><g transform="translate(0,0)"><path class="background" aria-hidden="true" d="M0,0h400v300h-400Z"/><g><g class="mark-line role-mark layer_0_marks" role="graphics-object" aria-roledescription="line mark container"><path aria-label="Discriminability (γ): γ = 2; theta: −4; p: 0.250234745091" role="graphics-symbol" aria-roledescription="line mark" d="M0,224.92957647260206L4.040404040404044,224.91722842186329L8.080808080808088,224.90271626909293L12.12121212121211,224.88566111943177L16.161616161616156,224.8656178863187L20.2020202020202,224.84206378363828L24.242424242424242,224.81438483837218L28.282828282828287,224.78186009136664L32.32323232323233,224.74364310113313L36.363636363636374,224.69874030577358L40.4040404040404,224.64598573069358L44.44444444444444,224.58401145448244L48.484848484848484,224.51121316227992L52.52525252525253,224.42571002574655L56.565656565656575,224.3252980528531L60.606060606060595,224.20739595175985L64.64646464646466,224.06898245545042L68.68686868686868,223.9065239643389L72.72727272727273,223.71589129298573L76.76767676767678,223.49226426915473L80.80808080808082,223.23002294972355L84.84848484848486,222.92262431759576L88.88888888888889,222.56246354648601L92.92929292929296,222.14071931930778L96.96969696969697,221.64718333024734L101.01010101010101,221.07007507896995L105.05050505050507,220.39584448745242L109.09090909090911,219.60896686653632L113.13131313131315,218.6917374785671L117.17171717171718,217.62407653908406L121.21212121212122,216.38336011400153L125.25252525252526,214.94429808560852L129.2929292929293,213.27888715416822L133.33333333333334,211.35647448298056L137.37373737373738,209.14397553266662L141.41414141414143,206.6062968468382L145.45454545454547,203.70701940982903L149.4949494949495,200.40939833393435L153.53535353535355,196.67772697009158L157.5757575757576,192.47909453162742L161.61616161616163,187.78553260441257L165.65656565656568,182.5764954061578L169.6969696969697,176.84155215429007L173.73737373737376,170.5830928989846L177.7777777777778,163.81877325618146L181.81818181818184,156.58336631655425L185.85858585858588,148.9296729760686L189.89898989898992,140.92818469557665L193.93939393939394,132.6653055777314L197.97979797979798,124.24011718216961L202.02020202020202,115.75988281783034L206.0606060606061,107.33469442226856L210.10101010101013,99.07181530442327L214.14141414141415,91.0703270239314L218.18181818181822,83.4166336834457L222.22222222222223,76.18122674381853L226.2626262626263,69.4169071010154L230.3030303030303,63.15844784570991L234.34343434343435,57.42350459384223L238.3838383838384,52.21446739558737L242.42424242424244,47.52090546837254L246.4646464646465,43.32227302990839L250.50505050505052,39.59060166606561L254.5454545454546,36.29298059017094L258.5858585858586,33.393703153161766L262.62626262626264,30.8560244673334L266.6666666666667,28.643525517019462L270.7070707070707,26.721112845831808L274.74747474747477,25.055701914391516L278.7878787878788,23.61663988599846L282.82828282828285,22.37592346091597L286.8686868686869,21.308262521432898L290.90909090909093,20.391033133463665L294.949494949495,19.604155512547607L298.989898989899,18.929924921030107L303.03030303030306,18.35281666975268L307.0707070707071,17.85928068069228L311.11111111111114,17.437536453514003L315.1515151515152,17.07737568240425L319.1919191919192,16.76997705027643L323.23232323232327,16.507735730845308L327.2727272727273,16.28410870701429L331.31313131313135,16.0934760356611L335.3535353535354,15.931017544549597L339.3939393939394,15.792604048240166L343.4343434343435,15.674701947146874L347.4747474747475,15.57428997425342L351.51515151515156,15.488786837720125L355.5555555555556,15.415988545517544L359.59595959595964,15.354014269306438L363.6363636363637,15.301259694226443L367.67676767676767,15.256356898866885L371.71717171717177,15.218139908633388L375.75757575757575,15.18561516162783L379.79797979797985,15.157936216361778L383.8383838383839,15.134382113681323L387.8787878787879,15.114338880568202L391.919191919192,15.097283730907051L395.95959595959596,15.082771578136732L400,15.070423527397958" stroke="#e45756" stroke-width="2"/></g></g><path class="foreground" aria-hidden="true" d="" display="none"/></g><g transform="translate(0,0)"><path class="background" aria-hidden="true" d="M0,0h400v300h-400Z"/><g><g class="mark-line role-mark layer_0_marks" role="graphics-object" aria-roledescription="line mark container"><path aria-label="Discriminability (γ): γ = 0.5; theta: −4; p: 0.333442045415" role="graphics-symbol" aria-roledescription="line mark" d="M0,199.96738637535532L4.040404040404044,199.06273606210954L8.080808080808088,198.13014196586496L12.12121212121211,197.1690859107772L16.161616161616156,196.17906548644285L20.2020202020202,195.15959624576277L24.242424242424242,194.1102139905405L28.282828282828287,193.030477139783L32.32323232323233,191.91996917460528L36.363636363636374,190.77830115251246L40.4040404040404,189.60511428266233L44.44444444444444,188.40008255249708L48.484848484848484,187.16291539488935L52.52525252525253,185.8933603836861L56.565656565656575,184.5912059442657L60.606060606060595,183.25628406446856L64.64646464646466,181.88847299002967L68.68686868686868,180.4876998874602L72.72727272727273,179.0539434562032L76.76767676767678,177.58723647086006L80.80808080808082,176.0876682333574L84.84848484848486,174.5553869141349L88.88888888888889,172.99060176079496L92.92929292929296,171.39358515219462L96.96969696969697,169.76467447570133L101.01010101010101,168.10427380529148L105.05050505050507,166.41285535837343L109.09090909090911,164.69096070967447L113.13131313131315,162.9392017412621L117.17171717171718,161.15826130878648L121.21212121212122,159.3488936053356L125.25252525252526,157.511924205898L129.2929292929293,155.64824977731956L133.33333333333334,153.7588374408216L137.37373737373738,151.84472377659876L141.41414141414143,149.9070134627226L145.45454545454547,147.94687754351483L149.4949494949495,145.9655513256915L153.53535353535355,143.96433190388677L157.5757575757576,141.94457532059351L161.61616161616163,139.90769336907346L165.65656565656568,137.8551500513342L169.6969696969697,135.788457706802L173.73737373737376,133.70917283077728L177.7777777777778,131.6188916050975L181.81818181818184,129.5192451665892L185.85858585858588,127.41189464182352L189.89898989898992,125.29852597933866L193.93939393939394,123.18084461282398L197.97979797979798,121.06056999072281L202.02020202020202,118.9394300092772L206.0606060606061,116.81915538717604L210.10101010101013,114.70147402066135L214.14141414141415,112.58810535817649L218.18181818181822,110.4807548334108L222.22222222222223,108.38110839490251L226.2626262626263,106.2908271692227L230.3030303030303,104.211542293198L234.34343434343435,102.14484994866578L238.3838383838384,100.09230663092656L242.42424242424244,98.05542467940647L246.4646464646465,96.03566809611321L250.50505050505052,94.0344486743085L254.5454545454546,92.05312245648516L258.5858585858586,90.09298653727743L262.62626262626264,88.15527622340127L266.6666666666667,86.24116255917839L270.7070707070707,84.35175022268042L274.74747474747477,82.48807579410202L278.7878787878788,80.6511063946644L282.82828282828285,78.84173869121352L286.8686868686869,77.06079825873789L290.90909090909093,75.30903929032556L294.949494949495,73.58714464162655L298.989898989899,71.89572619470852L303.03030303030306,70.23532552429864L307.0707070707071,68.60641484780535L311.11111111111114,67.00939823920505L315.1515151515152,65.44461308586509L319.1919191919192,63.91233176664263L323.23232323232327,62.412763529139944L327.2727272727273,60.946056543796765L331.31313131313135,59.512300112539805L335.3535353535354,58.111527009970295L339.3939393939394,56.743715935531455L343.4343434343435,55.408794055734276L347.4747474747475,54.10663961631389L351.51515151515156,52.83708460511064L355.5555555555556,51.59991744750294L359.59595959595964,50.39488571733768L363.6363636363637,49.22169884748753L367.67676767676767,48.08003082539477L371.71717171717177,46.969522860217005L375.75757575757575,45.889786009459556L379.79797979797985,44.8404037542372L383.8383838383839,43.82093451355718L387.8787878787879,42.83091408922283L391.919191919192,41.869858034135056L395.95959595959596,40.93726393789048L400,40.03261362464473" stroke="#4c78a8" stroke-width="2"/></g></g><path class="foreground" aria-hidden="true" d="" display="none"/></g></g><g class="mark-rule role-mark layer_1_marks" role="graphics-object" aria-roledescription="rule mark container"><line aria-label="linetype: solid; Skill (θ): −1.5; x2: 1.5; P(response = correct | θ): 0.3375; y2: 0.8625" role="graphics-symbol" aria-roledescription="rule mark" transform="translate(125,198.75)" x2="150" y2="-157.49999999999997" stroke="black" stroke-dasharray="1,0"/><line aria-label="linetype: dotted; Skill (θ): 0; x2: 0; P(response = correct | θ): 0; y2: 0.6" role="graphics-symbol" aria-roledescription="rule mark" transform="translate(200,300)" x2="0" y2="-180" stroke="black" stroke-dasharray="4,2"/><line aria-label="linetype: dotted; Skill (θ): −4; x2: 0; P(response = correct | θ): 0.6; y2: 0.6" role="graphics-symbol" aria-roledescription="rule mark" transform="translate(0,120)" x2="200" y2="0" stroke="black" stroke-dasharray="4,2"/><line aria-label="linetype: dotted; Skill (θ): −4; x2: −2.5; P(response = correct | θ): 0.25; y2: 0.25" role="graphics-symbol" aria-roledescription="rule mark" transform="translate(0,225)" x2="75" y2="0" stroke="black" stroke-dasharray="4,2"/><line aria-label="linetype: dotted; Skill (θ): −4; x2: 4; P(response = correct | θ): 0.95; y2: 0.95" role="graphics-symbol" aria-roledescription="rule mark" transform="translate(0,15.000000000000014)" x2="400" y2="0" stroke="black" stroke-dasharray="4,2"/></g><g class="mark-text role-mark layer_2_marks" role="graphics-object" aria-roledescription="text mark container"><text aria-label="text: Difficulty β=0.0; x: 1; y: 0.1" role="graphics-symbol" aria-roledescription="text mark" text-anchor="middle" transform="translate(250,273)" font-family="sans-serif" font-size="11px" fill="black">Difficulty β=0.0</text><text aria-label="text: Random Correct c=0.25; x: −2.5; y: 0.2" role="graphics-symbol" aria-roledescription="text mark" text-anchor="middle" transform="translate(75,243)" font-family="sans-serif" font-size="11px" fill="black">Random Correct c=0.25</text><text aria-label="text: Feasibility λ=.95; x: −3; y: 0.91" role="graphics-symbol" aria-roledescription="text mark" text-anchor="middle" transform="translate(50,29.99999999999999)" font-family="sans-serif" font-size="11px" fill="black">Feasibility λ=.95</text></g><g class="mark-group role-legend" role="graphics-symbol" aria-roledescription="legend" aria-label="Symbol legend titled 'Discriminability (γ)' for stroke color with 3 values: γ = 0.5, γ = 1, γ = 2"><g transform="translate(0,-45)"><path class="background" aria-hidden="true" d="M0,0h157v27h-157Z" pointer-events="none"/><g><g class="mark-group role-legend-entry"><g transform="translate(0,16)"><path class="background" aria-hidden="true" d="M0,0h0v0h0Z" pointer-events="none"/><g><g class="mark-group role-scope" role="graphics-object" aria-roledescription="group mark container"><g transform="translate(0,0)"><path class="background" aria-hidden="true" d="M0,0h51v11h-51Z" pointer-events="none" opacity="1"/><g><g class="mark-symbol role-legend-symbol" pointer-events="none"><path transform="translate(6,6)" d="M-5,0L5,0" stroke="#4c78a8" stroke-width="1.5" opacity="1"/></g><g class="mark-text role-legend-label" pointer-events="none"><text text-anchor="start" transform="translate(16,9)" font-family="sans-serif" font-size="10px" fill="#000" opacity="1">γ = 0.5</text></g></g><path class="foreground" aria-hidden="true" d="" pointer-events="none" display="none"/></g><g transform="translate(62,0)"><path class="background" aria-hidden="true" d="M0,0h42v11h-42Z" pointer-events="none" opacity="1"/><g><g class="mark-symbol role-legend-symbol" pointer-events="none"><path transform="translate(6,6)" d="M-5,0L5,0" stroke="#f58518" stroke-width="1.5" opacity="1"/></g><g class="mark-text role-legend-label" pointer-events="none"><text text-anchor="start" transform="translate(16,9)" font-family="sans-serif" font-size="10px" fill="#000" opacity="1">γ = 1</text></g></g><path class="foreground" aria-hidden="true" d="" pointer-events="none" display="none"/></g><g transform="translate(115,0)"><path class="background" aria-hidden="true" d="M0,0h42v11h-42Z" pointer-events="none" opacity="1"/><g><g class="mark-symbol role-legend-symbol" pointer-events="none"><path transform="translate(6,6)" d="M-5,0L5,0" stroke="#e45756" stroke-width="1.5" opacity="1"/></g><g class="mark-text role-legend-label" pointer-events="none"><text text-anchor="start" transform="translate(16,9)" font-family="sans-serif" font-size="10px" fill="#000" opacity="1">γ = 2</text></g></g><path class="foreground" aria-hidden="true" d="" pointer-events="none" display="none"/></g></g></g><path class="foreground" aria-hidden="true" d="" pointer-events="none" display="none"/></g></g><g class="mark-text role-legend-title" pointer-events="none"><text text-anchor="start" transform="translate(0,9)" font-family="sans-serif" font-size="11px" font-weight="bold" fill="#000" opacity="1">Discriminability (γ)</text></g></g><path class="foreground" aria-hidden="true" d="" pointer-events="none" display="none"/></g></g><g class="mark-group role-title"><g transform="translate(200,-62)"><path class="background" aria-hidden="true" d="M0,0h0v0h0Z" pointer-events="none"/><g><g class="mark-text role-title-text" role="graphics-symbol" aria-roledescription="title" aria-label="Title text 'Item Characteristic Curve'" pointer-events="none"><text text-anchor="middle" transform="translate(0,10)" font-family="sans-serif" font-size="13px" font-weight="bold" fill="#000" opacity="1">Item Characteristic Curve</text></g></g><path class="foreground" aria-hidden="true" d="" pointer-events="none" display="none"/></g></g></g><path class="foreground" aria-hidden="true" d="" display="none"/></g></g></g></svg>