<svg xmlns="http://www.w3.org/2000/svg" xmlns:xlink="http://www.w3.org/1999/xlink" version="1.1" class="marks" width="201" height="99" viewBox="0 0 201 99"><rect width="201" height="99" fill="white"/><g fill="none" stroke-miterlimit="10" transform="translate(44,11)"><g class="mark-group role-frame root" role="graphics-object" aria-roledescription="group mark container"><g transform="translate(0,0)"><path class="background" aria-hidden="true" d="M0.5,0.5h150v50h-150Z" stroke="#ddd"/><g><g class="mark-group role-axis" aria-hidden="true"><g transform="translate(0.5,50.5)"><path class="background" aria-hidden="true" d="M0,0h0v0h0Z" pointer-events="none"/><g><g class="mark-rule role-axis-grid" pointer-events="none"><line transform="translate(25,-50)" x2="0" y2="50" stroke="#ddd" stroke-width="1" opacity="1"/><line transform="translate(56,-50)" x2="0" y2="50" stroke="#ddd" stroke-width="1" opacity="1"/><line transform="translate(88,-50)" x2="0" y2="50" stroke="#ddd" stroke-width="1" opacity="1"/><line transform="translate(119,-50)" x2="0" y2="50" stroke="#ddd" stroke-width="1" opacity="1"/><line transform="translate(150,-50)" x2="0" y2="50" stroke="#ddd" stroke-width="1" opacity="1"/></g></g><path class="foreground" aria-hidden="true" d="" pointer-events="none" display="none"/></g></g><g class="mark-group role-axis" aria-hidden="true"><g transform="translate(0.5,0.5)"><path class="background" aria-hidden="true" d="M0,0h0v0h0Z" pointer-events="none"/><g><g class="mark-rule role-axis-grid" pointer-events="none"><line transform="translate(0,50)" x2="150" y2="0" stroke="#ddd" stroke-width="1" opacity="1"/><line transform="translate(0,25)" x2="150" y2="0" stroke="#ddd" stroke-width="1" opacity="1"/><line transform="translate(0,0)" x2="150" y2="0" stroke="#ddd" stroke-width="1" opacity="1"/></g></g><path class="foreground" aria-hidden="true" d="" pointer-events="none" display="none"/></g></g><g class="mark-group role-axis" role="graphics-symbol" aria-roledescription="axis" aria-label="X-axis titled 'Difficulty (β)' for a linear scale with values from −4 to 20"><g transform="translate(0.5,50.5)"><path class="background" aria-hidden="true" d="M0,0h0v0h0Z" pointer-events="none"/><g><g class="mark-rule role-axis-tick" pointer-events="none"><line transform="translate(25,0)" x2="0" y2="5" stroke="#888" stroke-width="1" opacity="1"/><line transform="translate(56,0)" x2="0" y2="5" stroke="#888" stroke-width="1" opacity="1"/><line transform="translate(88,0)" x2="0" y2="5" stroke="#888" stroke-width="1" opacity="1"/><line transform="translate(119,0)" x2="0" y2="5" stroke="#888" stroke-width="1" opacity="1"/><line transform="translate(150,0)" x2="0" y2="5" stroke="#888" stroke-width="1" opacity="1"/></g><g class="mark-text role-axis-label" pointer-events="none"><text text-anchor="middle" transform="translate(25,16)" font-family="sans-serif" font-size="11px" fill="#000" opacity="1">0</text><text text-anchor="middle" transform="translate(56.25,16)" font-family="sans-serif" font-size="11px" fill="#000" opacity="1">5</text><text text-anchor="middle" transform="translate(87.5,16)" font-family="sans-serif" font-size="11px" fill="#000" opacity="1">10</text><text text-anchor="middle" transform="translate(118.75,16)" font-family="sans-serif" font-size="11px" fill="#000" opacity="1">15</text><text text-anchor="end" transform="translate(150,16)" font-family="sans-serif" font-size="11px" fill="#000" opacity="1">20</text></g><g class="mark-rule role-axis-domain" pointer-events="none"><line transform="translate(0,0)" x2="150" y2="0" stroke="#888" stroke-width="1" opacity="1"/></g><g class="mark-text role-axis-title" pointer-events="none"><text text-anchor="middle" transform="translate(75,31)" font-family="sans-serif" font-size="11px" font-weight="bold" fill="#000" opacity="1">Difficulty (β)</text></g></g><path class="foreground" aria-hidden="true" d="" pointer-events="none" display="none"/></g></g><g class="mark-group role-axis" role="graphics-symbol" aria-roledescription="axis" aria-label="Y-axis titled 'Density' for a linear scale with values from 0.00 to 0.20"><g transform="translate(0.5,0.5)"><path class="background" aria-hidden="true" d="M0,0h0v0h0Z" pointer-events="none"/><g><g class="mark-rule role-axis-tick" pointer-events="none"><line transform="translate(0,50)" x2="-5" y2="0" stroke="#888" stroke-width="1" opacity="1"/><line transform="translate(0,25)" x2="-5" y2="0" stroke="#888" stroke-width="1" opacity="1"/><line transform="translate(0,0)" x2="-5" y2="0" stroke="#888" stroke-width="1" opacity="1"/></g><g class="mark-text role-axis-label" pointer-events="none"><text text-anchor="end" transform="translate(-7,53)" font-family="sans-serif" font-size="11px" fill="#000" opacity="1">0.0</text><text text-anchor="end" transform="translate(-7,28)" font-family="sans-serif" font-size="11px" fill="#000" opacity="1">0.1</text><text text-anchor="end" transform="translate(-7,3)" font-family="sans-serif" font-size="11px" fill="#000" opacity="1">0.2</text></g><g class="mark-rule role-axis-domain" pointer-events="none"><line transform="translate(0,50)" x2="0" y2="-50" stroke="#888" stroke-width="1" opacity="1"/></g><g class="mark-text role-axis-title" pointer-events="none"><text text-anchor="middle" transform="translate(-28,25) rotate(-90) translate(0,-2)" font-family="sans-serif" font-size="11px" font-weight="bold" fill="#000" opacity="1">Density</text></g></g><path class="foreground" aria-hidden="true" d="" pointer-events="none" display="none"/></g></g><g class="mark-line role-mark marks" role="graphics-object" aria-roledescription="line mark container"><path aria-label="Difficulty (β): −4; Density: 0.0318309886184" role="graphics-symbol" aria-roledescription="line mark" d="M0,42.04225284540524L1.5151515151515138,41.21631192848804L3.0303030303030307,40.26949623697092L4.545454545454547,39.18104038532621L6.060606060606061,37.927017760722066L7.575757575757574,36.48052004469001L9.090909090909092,34.812501487287584L10.606060606060607,32.89382816550786L12.121212121212123,30.69936157827672L13.636363636363635,28.21521706547543L15.15151515151515,25.450462744038948L16.666666666666668,22.45395215716662L18.181818181818183,19.334795996607383L19.696969696969695,16.28020758222303L21.21212121212121,13.557667571918708L22.727272727272727,11.484503771188326L24.242424242424246,10.356877164998474L25.757575757575758,10.35687716165204L27.27272727272727,11.484503757242587L28.78787878787879,13.557667531630619L30.3030303030303,16.280207472364587L31.81818181818182,19.33479570581093L33.333333333333336,22.45395140758138L34.84848484848485,25.450460861740808L36.36363636363637,28.215212460686796L37.87878787878788,30.699350603718976L39.39393939393939,32.893802684262766L40.909090909090914,34.81244384906486L42.42424242424242,36.48039302915607L43.93939393939394,37.926745076871754L45.45454545454545,39.18047006569736L46.96969696969697,40.268334163618114L48.48484848484849,41.214005154273245L50,42.03779183787974L51.515151515151516,42.75667583613651L53.03030303030303,43.3844316897843L54.54545454545454,43.931717268282036L56.06060606060606,44.40607190201306L57.57575757575758,44.811800340751375L59.09090909090909,45.14975777225318L60.6060606060606,45.41709104330206L62.121212121212125,45.60703519947573L63.63636363636364,45.70890821488281L65.15151515151514,45.708480331811906L66.66666666666667,45.5889031738387L68.18181818181819,45.332351532989975L69.6969696969697,44.92244473909422L71.21212121212122,44.34737196042264L72.72727272727273,43.60345966129907L74.24242424242425,42.6987215684906L75.75757575757576,41.6557700057088L77.27272727272727,40.513397519318076L78.78787878787878,39.32620642572225L80.3030303030303,38.161892894220394L81.81818181818183,37.09616371142831L83.33333333333334,36.205716457777996L84.84848484848484,35.56015122483808L86.36363636363637,35.21399542725007L87.87878787878788,35.200121438955485L89.39393939393939,35.525674735782665L90.9090909090909,36.17122683511707L92.42424242424244,37.093304611587506L93.93939393939394,38.22985064387829L95.45454545454545,39.50767259336834L96.96969696969698,40.850650364225295L98.48484848484848,42.187439754332246L100,43.45762627369281L101.51515151515152,44.61567154564445L103.03030303030303,45.6324532685108L104.54545454545453,46.49462214760197L106.06060606060606,47.20230463083794L107.57575757575756,47.76582885342989L109.09090909090908,48.20214615250883L110.60606060606062,48.53149832242969L112.12121212121212,48.774694730527926L113.63636363636365,48.951166737283856L115.15151515151516,49.07780025922435L116.66666666666667,49.16843308298194L118.18181818181819,49.233846089084984L119.6969696969697,49.282068147510344L121.2121212121212,49.31883765523976L122.72727272727273,49.34810313967928L124.24242424242425,49.37248769735056L125.75757575757575,49.39367864726277L127.27272727272728,49.41273068814031L128.78787878787878,49.43028764261092L130.30303030303028,49.44673623283264L131.8181818181818,49.46230775675279L133.33333333333334,49.47714244675016L134.84848484848487,49.491328590809864L136.36363636363637,49.50492543057374L137.87878787878788,49.517976100685885L139.3939393939394,49.53051471007416L140.9090909090909,49.54257011198213L142.42424242424244,49.55416787103169L143.93939393939394,49.56533128216287L145.45454545454547,49.57608190644521L146.96969696969697,49.58643986709492L148.4848484848485,49.59642402848887L150,49.606052118089366" stroke="#4c78a8" stroke-width="2"/></g></g><path class="foreground" aria-hidden="true" d="" display="none"/></g></g></g></svg>