<svg xmlns="http://www.w3.org/2000/svg" xmlns:xlink="http://www.w3.org/1999/xlink" version="1.1" class="marks" width="1621" height="366" viewBox="0 0 1621 366"><rect width="1621" height="366" fill="white"/><g fill="none" stroke-miterlimit="10" transform="translate(53,47)"><g class="mark-group role-frame root" role="graphics-object" aria-roledescription="group mark container"><g transform="translate(0,0)"><path class="background" aria-hidden="true" d="M0,0h0v300h0Z"/><g><g class="mark-group role-scope concat_0_group" role="graphics-object" aria-roledescription="group mark container"><g transform="translate(0,0)"><path class="background" aria-hidden="true" d="M0.5,0.5h300v300h-300Z" stroke="#ddd"/><g><g class="mark-group role-axis" aria-hidden="true"><g transform="translate(0.5,0.5)"><path class="background" aria-hidden="true" d="M0,0h0v0h0Z" pointer-events="none"/><g><g class="mark-rule role-axis-grid" pointer-events="none"><line transform="translate(0,300)" x2="300" y2="0" stroke="#ddd" stroke-width="1" opacity="1"/><line transform="translate(0,270)" x2="300" y2="0" stroke="#ddd" stroke-width="1" opacity="1"/><line transform="translate(0,240)" x2="300" y2="0" stroke="#ddd" stroke-width="1" opacity="1"/><line transform="translate(0,210)" x2="300" y2="0" stroke="#ddd" stroke-width="1" opacity="1"/><line transform="translate(0,180)" x2="300" y2="0" stroke="#ddd" stroke-width="1" opacity="1"/><line transform="translate(0,150)" x2="300" y2="0" stroke="#ddd" stroke-width="1" opacity="1"/><line transform="translate(0,120)" x2="300" y2="0" stroke="#ddd" stroke-width="1" opacity="1"/><line transform="translate(0,90)" x2="300" y2="0" stroke="#ddd" stroke-width="1" opacity="1"/><line transform="translate(0,60)" x2="300" y2="0" stroke="#ddd" stroke-width="1" opacity="1"/><line transform="translate(0,30)" x2="300" y2="0" stroke="#ddd" stroke-width="1" opacity="1"/><line transform="translate(0,0)" x2="300" y2="0" stroke="#ddd" stroke-width="1" opacity="1"/></g></g><path class="foreground" aria-hidden="true" d="" pointer-events="none" display="none"/></g></g><g class="mark-group role-axis" role="graphics-symbol" aria-roledescription="axis" aria-label="X-axis for a discrete scale with 15 values: IRT-Vec, IRT-Feas, IRT-Disc, IRT-Base, LM +IRT, ending with LM +Baseline"><g transform="translate(0.5,300.5)"><path class="background" aria-hidden="true" d="M0,0h0v0h0Z" pointer-events="none"/><g><g class="mark-rule role-axis-tick" pointer-events="none"><line transform="translate(10,0)" x2="0" y2="5" stroke="#888" stroke-width="1" opacity="1"/><line transform="translate(30,0)" x2="0" y2="5" stroke="#888" stroke-width="1" opacity="1"/><line transform="translate(50,0)" x2="0" y2="5" stroke="#888" stroke-width="1" opacity="1"/><line transform="translate(70,0)" x2="0" y2="5" stroke="#888" stroke-width="1" opacity="1"/><line transform="translate(90,0)" x2="0" y2="5" stroke="#888" stroke-width="1" opacity="1"/><line transform="translate(110,0)" x2="0" y2="5" stroke="#888" stroke-width="1" opacity="1"/><line transform="translate(130,0)" x2="0" y2="5" stroke="#888" stroke-width="1" opacity="1"/><line transform="translate(150,0)" x2="0" y2="5" stroke="#888" stroke-width="1" opacity="1"/><line transform="translate(170,0)" x2="0" y2="5" stroke="#888" stroke-width="1" opacity="1"/><line transform="translate(190,0)" x2="0" y2="5" stroke="#888" stroke-width="1" opacity="1"/><line transform="translate(210,0)" x2="0" y2="5" stroke="#888" stroke-width="1" opacity="1"/><line transform="translate(230,0)" x2="0" y2="5" stroke="#888" stroke-width="1" opacity="1"/><line transform="translate(250,0)" x2="0" y2="5" stroke="#888" stroke-width="1" opacity="1"/><line transform="translate(270,0)" x2="0" y2="5" stroke="#888" stroke-width="1" opacity="1"/><line transform="translate(290,0)" x2="0" y2="5" stroke="#888" stroke-width="1" opacity="1"/></g><g class="mark-rule role-axis-domain" pointer-events="none"><line transform="translate(0,0)" x2="300" y2="0" stroke="#888" stroke-width="1" opacity="1"/></g></g><path class="foreground" aria-hidden="true" d="" pointer-events="none" display="none"/></g></g><g class="mark-group role-axis" role="graphics-symbol" aria-roledescription="axis" aria-label="Y-axis for a linear scale with values from 0.0 to 1.0"><g transform="translate(0.5,0.5)"><path class="background" aria-hidden="true" d="M0,0h0v0h0Z" pointer-events="none"/><g><g class="mark-rule role-axis-tick" pointer-events="none"><line transform="translate(0,300)" x2="-5" y2="0" stroke="#888" stroke-width="1" opacity="1"/><line transform="translate(0,270)" x2="-5" y2="0" stroke="#888" stroke-width="1" opacity="1"/><line transform="translate(0,240)" x2="-5" y2="0" stroke="#888" stroke-width="1" opacity="1"/><line transform="translate(0,210)" x2="-5" y2="0" stroke="#888" stroke-width="1" opacity="1"/><line transform="translate(0,180)" x2="-5" y2="0" stroke="#888" stroke-width="1" opacity="1"/><line transform="translate(0,150)" x2="-5" y2="0" stroke="#888" stroke-width="1" opacity="1"/><line transform="translate(0,120)" x2="-5" y2="0" stroke="#888" stroke-width="1" opacity="1"/><line transform="translate(0,90)" x2="-5" y2="0" stroke="#888" stroke-width="1" opacity="1"/><line transform="translate(0,60)" x2="-5" y2="0" stroke="#888" stroke-width="1" opacity="1"/><line transform="translate(0,30)" x2="-5" y2="0" stroke="#888" stroke-width="1" opacity="1"/><line transform="translate(0,0)" x2="-5" y2="0" stroke="#888" stroke-width="1" opacity="1"/></g><g class="mark-text role-axis-label" pointer-events="none"><text text-anchor="end" transform="translate(-7,308)" font-family="sans-serif" font-size="25px" fill="#000" opacity="1">0.0</text><text text-anchor="end" transform="translate(-7,278)" font-family="sans-serif" font-size="25px" fill="#000" opacity="1">0.1</text><text text-anchor="end" transform="translate(-7,248)" font-family="sans-serif" font-size="25px" fill="#000" opacity="1">0.2</text><text text-anchor="end" transform="translate(-7,218)" font-family="sans-serif" font-size="25px" fill="#000" opacity="1">0.3</text><text text-anchor="end" transform="translate(-7,188)" font-family="sans-serif" font-size="25px" fill="#000" opacity="1">0.4</text><text text-anchor="end" transform="translate(-7,158)" font-family="sans-serif" font-size="25px" fill="#000" opacity="1">0.5</text><text text-anchor="end" transform="translate(-7,128)" font-family="sans-serif" font-size="25px" fill="#000" opacity="1">0.6</text><text text-anchor="end" transform="translate(-7,98.00000000000001)" font-family="sans-serif" font-size="25px" fill="#000" opacity="1">0.7</text><text text-anchor="end" transform="translate(-7,67.99999999999999)" font-family="sans-serif" font-size="25px" fill="#000" opacity="1">0.8</text><text text-anchor="end" transform="translate(-7,37.99999999999999)" font-family="sans-serif" font-size="25px" fill="#000" opacity="1">0.9</text><text text-anchor="end" transform="translate(-7,8)" font-family="sans-serif" font-size="25px" fill="#000" opacity="1">1.0</text></g><g class="mark-rule role-axis-domain" pointer-events="none"><line transform="translate(0,300)" x2="0" y2="-300" stroke="#888" stroke-width="1" opacity="1"/></g></g><path class="foreground" aria-hidden="true" d="" pointer-events="none" display="none"/></g></g><g class="mark-rect role-mark concat_0_marks" role="graphics-object" aria-roledescription="rect mark container"><path aria-label="Features: IRT-Base; features: IRT-Base; value: 0.936830803483" role="graphics-symbol" aria-roledescription="bar" d="M61,18.950758955215985h18v281.049241044784h-18Z" fill="#ffbb78"/><path aria-label="Features: IRT-Disc; features: IRT-Disc; value: 0.944141847656" role="graphics-symbol" aria-roledescription="bar" d="M41,16.75744570326836h18v283.24255429673167h-18Z" fill="#ff7f0e"/><path aria-label="Features: IRT-Feas; features: IRT-Feas; value: 0.947347335039" role="graphics-symbol" aria-roledescription="bar" d="M21,15.795799488387752h18v284.20420051161227h-18Z" fill="#aec7e8"/><path aria-label="Features: IRT-Vec; features: IRT-Vec; value: 0.950485456225" role="graphics-symbol" aria-roledescription="bar" d="M1,14.854363132410665h18v285.14563686758936h-18Z" fill="#1f77b4"/><path aria-label="Features: LM +Question; features: LM +Question; value: 0.846404542754" role="graphics-symbol" aria-roledescription="bar" d="M161,46.07863717383031h18v253.92136282616968h-18Z" fill="#9467bd"/><path aria-label="Features: LM +Subj &amp; Item ID; features: LM +Subj &amp; Item ID; value: 0.926601579986" role="graphics-symbol" aria-roledescription="bar" d="M121,22.019526004259248h18v277.98047399574074h-18Z" fill="#c49c94"/><path aria-label="Features: LM +Item ID; features: LM +Item ID; value: 0.879894064011" role="graphics-symbol" aria-roledescription="bar" d="M141,36.03178079677324h18v263.96821920322674h-18Z" fill="#d62728"/><path aria-label="Features: LM +Stats; features: LM +Stats; value: 0.613534954375" role="graphics-symbol" aria-roledescription="bar" d="M241,115.93951368759548h18v184.06048631240452h-18Z" fill="#8c564b"/><path aria-label="Features: LM +Topics 1K; features: LM +Topics 1K; value: 0.625117628067" role="graphics-symbol" aria-roledescription="bar" d="M221,112.46471157999049h18v187.53528842000952h-18Z" fill="#e377c2"/><path aria-label="Features: LM +Title; features: LM +Title; value: 0.585721279842" role="graphics-symbol" aria-roledescription="bar" d="M261,124.28361604735215h18v175.71638395264785h-18Z" fill="#f7b6d2"/><path aria-label="Features: LM +Context; features: LM +Context; value: 0.657687945469" role="graphics-symbol" aria-roledescription="bar" d="M201,102.69361635926593h18v197.30638364073405h-18Z" fill="#c5b0d5"/><path aria-label="Features: LM +Subject ID; features: LM +Subject ID; value: 0.66454701214" role="graphics-symbol" aria-roledescription="bar" d="M181,100.63589635802505h18v199.36410364197496h-18Z" fill="#ff9896"/><path aria-label="Features: LM +Baseline; features: LM +Baseline; value: 0.5" role="graphics-symbol" aria-roledescription="bar" d="M281,150h18v150h-18Z" fill="#7f7f7f"/><path aria-label="Features: LM +IRT; features: LM +IRT; value: 0.936400435475" role="graphics-symbol" aria-roledescription="bar" d="M81,19.079869357450384h18v280.9201306425496h-18Z" fill="#98df8a"/><path aria-label="Features: LM All; features: LM All; value: 0.932672455709" role="graphics-symbol" aria-roledescription="bar" d="M101,20.19826328724227h18v279.8017367127577h-18Z" fill="#2ca02c"/></g><g class="mark-group role-title"><g transform="translate(150,-41)"><path class="background" aria-hidden="true" d="M0,0h0v0h0Z" pointer-events="none"/><g><g class="mark-text role-title-text" role="graphics-symbol" aria-roledescription="title" aria-label="Title text 'ROC AUC'" pointer-events="none"><text text-anchor="middle" transform="translate(0,20)" font-family="sans-serif" font-size="25px" font-weight="bold" fill="#000" opacity="1">ROC AUC</text></g></g><path class="foreground" aria-hidden="true" d="" pointer-events="none" display="none"/></g></g></g><path class="foreground" aria-hidden="true" d="" display="none"/></g></g><g class="mark-group role-scope concat_1_group" role="graphics-object" aria-roledescription="group mark container"><g transform="translate(369,0)"><path class="background" aria-hidden="true" d="M0.5,0.5h300v300h-300Z" stroke="#ddd"/><g><g class="mark-group role-axis" aria-hidden="true"><g transform="translate(0.5,0.5)"><path class="background" aria-hidden="true" d="M0,0h0v0h0Z" pointer-events="none"/><g><g class="mark-rule role-axis-grid" pointer-events="none"><line transform="translate(0,300)" x2="300" y2="0" stroke="#ddd" stroke-width="1" opacity="1"/><line transform="translate(0,270)" x2="300" y2="0" stroke="#ddd" stroke-width="1" opacity="1"/><line transform="translate(0,240)" x2="300" y2="0" stroke="#ddd" stroke-width="1" opacity="1"/><line transform="translate(0,210)" x2="300" y2="0" stroke="#ddd" stroke-width="1" opacity="1"/><line transform="translate(0,180)" x2="300" y2="0" stroke="#ddd" stroke-width="1" opacity="1"/><line transform="translate(0,150)" x2="300" y2="0" stroke="#ddd" stroke-width="1" opacity="1"/><line transform="translate(0,120)" x2="300" y2="0" stroke="#ddd" stroke-width="1" opacity="1"/><line transform="translate(0,90)" x2="300" y2="0" stroke="#ddd" stroke-width="1" opacity="1"/><line transform="translate(0,60)" x2="300" y2="0" stroke="#ddd" stroke-width="1" opacity="1"/><line transform="translate(0,30)" x2="300" y2="0" stroke="#ddd" stroke-width="1" opacity="1"/><line transform="translate(0,0)" x2="300" y2="0" stroke="#ddd" stroke-width="1" opacity="1"/></g></g><path class="foreground" aria-hidden="true" d="" pointer-events="none" display="none"/></g></g><g class="mark-group role-axis" role="graphics-symbol" aria-roledescription="axis" aria-label="X-axis for a discrete scale with 15 values: IRT-Vec, IRT-Feas, IRT-Disc, LM All, IRT-Base, ending with LM +Baseline"><g transform="translate(0.5,300.5)"><path class="background" aria-hidden="true" d="M0,0h0v0h0Z" pointer-events="none"/><g><g class="mark-rule role-axis-tick" pointer-events="none"><line transform="translate(10,0)" x2="0" y2="5" stroke="#888" stroke-width="1" opacity="1"/><line transform="translate(30,0)" x2="0" y2="5" stroke="#888" stroke-width="1" opacity="1"/><line transform="translate(50,0)" x2="0" y2="5" stroke="#888" stroke-width="1" opacity="1"/><line transform="translate(70,0)" x2="0" y2="5" stroke="#888" stroke-width="1" opacity="1"/><line transform="translate(90,0)" x2="0" y2="5" stroke="#888" stroke-width="1" opacity="1"/><line transform="translate(110,0)" x2="0" y2="5" stroke="#888" stroke-width="1" opacity="1"/><line transform="translate(130,0)" x2="0" y2="5" stroke="#888" stroke-width="1" opacity="1"/><line transform="translate(150,0)" x2="0" y2="5" stroke="#888" stroke-width="1" opacity="1"/><line transform="translate(170,0)" x2="0" y2="5" stroke="#888" stroke-width="1" opacity="1"/><line transform="translate(190,0)" x2="0" y2="5" stroke="#888" stroke-width="1" opacity="1"/><line transform="translate(210,0)" x2="0" y2="5" stroke="#888" stroke-width="1" opacity="1"/><line transform="translate(230,0)" x2="0" y2="5" stroke="#888" stroke-width="1" opacity="1"/><line transform="translate(250,0)" x2="0" y2="5" stroke="#888" stroke-width="1" opacity="1"/><line transform="translate(270,0)" x2="0" y2="5" stroke="#888" stroke-width="1" opacity="1"/><line transform="translate(290,0)" x2="0" y2="5" stroke="#888" stroke-width="1" opacity="1"/></g><g class="mark-rule role-axis-domain" pointer-events="none"><line transform="translate(0,0)" x2="300" y2="0" stroke="#888" stroke-width="1" opacity="1"/></g></g><path class="foreground" aria-hidden="true" d="" pointer-events="none" display="none"/></g></g><g class="mark-group role-axis" role="graphics-symbol" aria-roledescription="axis" aria-label="Y-axis for a linear scale with values from 0.0 to 1.0"><g transform="translate(0.5,0.5)"><path class="background" aria-hidden="true" d="M0,0h0v0h0Z" pointer-events="none"/><g><g class="mark-rule role-axis-tick" pointer-events="none"><line transform="translate(0,300)" x2="-5" y2="0" stroke="#888" stroke-width="1" opacity="1"/><line transform="translate(0,270)" x2="-5" y2="0" stroke="#888" stroke-width="1" opacity="1"/><line transform="translate(0,240)" x2="-5" y2="0" stroke="#888" stroke-width="1" opacity="1"/><line transform="translate(0,210)" x2="-5" y2="0" stroke="#888" stroke-width="1" opacity="1"/><line transform="translate(0,180)" x2="-5" y2="0" stroke="#888" stroke-width="1" opacity="1"/><line transform="translate(0,150)" x2="-5" y2="0" stroke="#888" stroke-width="1" opacity="1"/><line transform="translate(0,120)" x2="-5" y2="0" stroke="#888" stroke-width="1" opacity="1"/><line transform="translate(0,90)" x2="-5" y2="0" stroke="#888" stroke-width="1" opacity="1"/><line transform="translate(0,60)" x2="-5" y2="0" stroke="#888" stroke-width="1" opacity="1"/><line transform="translate(0,30)" x2="-5" y2="0" stroke="#888" stroke-width="1" opacity="1"/><line transform="translate(0,0)" x2="-5" y2="0" stroke="#888" stroke-width="1" opacity="1"/></g><g class="mark-text role-axis-label" pointer-events="none"><text text-anchor="end" transform="translate(-7,308)" font-family="sans-serif" font-size="25px" fill="#000" opacity="1">0.0</text><text text-anchor="end" transform="translate(-7,278)" font-family="sans-serif" font-size="25px" fill="#000" opacity="1">0.1</text><text text-anchor="end" transform="translate(-7,248)" font-family="sans-serif" font-size="25px" fill="#000" opacity="1">0.2</text><text text-anchor="end" transform="translate(-7,218)" font-family="sans-serif" font-size="25px" fill="#000" opacity="1">0.3</text><text text-anchor="end" transform="translate(-7,188)" font-family="sans-serif" font-size="25px" fill="#000" opacity="1">0.4</text><text text-anchor="end" transform="translate(-7,158)" font-family="sans-serif" font-size="25px" fill="#000" opacity="1">0.5</text><text text-anchor="end" transform="translate(-7,128)" font-family="sans-serif" font-size="25px" fill="#000" opacity="1">0.6</text><text text-anchor="end" transform="translate(-7,98.00000000000001)" font-family="sans-serif" font-size="25px" fill="#000" opacity="1">0.7</text><text text-anchor="end" transform="translate(-7,67.99999999999999)" font-family="sans-serif" font-size="25px" fill="#000" opacity="1">0.8</text><text text-anchor="end" transform="translate(-7,37.99999999999999)" font-family="sans-serif" font-size="25px" fill="#000" opacity="1">0.9</text><text text-anchor="end" transform="translate(-7,8)" font-family="sans-serif" font-size="25px" fill="#000" opacity="1">1.0</text></g><g class="mark-rule role-axis-domain" pointer-events="none"><line transform="translate(0,300)" x2="0" y2="-300" stroke="#888" stroke-width="1" opacity="1"/></g></g><path class="foreground" aria-hidden="true" d="" pointer-events="none" display="none"/></g></g><g class="mark-rect role-mark concat_1_marks" role="graphics-object" aria-roledescription="rect mark container"><path aria-label="Features: IRT-Base; features: IRT-Base; value: 0.819575929672" role="graphics-symbol" aria-roledescription="bar" d="M81,54.127221098283364h18v245.87277890171663h-18Z" fill="#ffbb78"/><path aria-label="Features: IRT-Disc; features: IRT-Disc; value: 0.827808272892" role="graphics-symbol" aria-roledescription="bar" d="M41,51.65751813240966h18v248.34248186759032h-18Z" fill="#ff7f0e"/><path aria-label="Features: IRT-Feas; features: IRT-Feas; value: 0.838273340396" role="graphics-symbol" aria-roledescription="bar" d="M21,48.51799788106258h18v251.48200211893743h-18Z" fill="#aec7e8"/><path aria-label="Features: IRT-Vec; features: IRT-Vec; value: 0.859336072354" role="graphics-symbol" aria-roledescription="bar" d="M1,42.19917829386801h18v257.800821706132h-18Z" fill="#1f77b4"/><path aria-label="Features: LM +Question; features: LM +Question; value: 0.743678579303" role="graphics-symbol" aria-roledescription="bar" d="M161,76.89642620916443h18v223.10357379083558h-18Z" fill="#9467bd"/><path aria-label="Features: LM +Subj &amp; Item ID; features: LM +Subj &amp; Item ID; value: 0.817843198753" role="graphics-symbol" aria-roledescription="bar" d="M101,54.64704037399171h18v245.3529596260083h-18Z" fill="#c49c94"/><path aria-label="Features: LM +Item ID; features: LM +Item ID; value: 0.766540682048" role="graphics-symbol" aria-roledescription="bar" d="M141,70.03779538554203h18v229.96220461445796h-18Z" fill="#d62728"/><path aria-label="Features: LM +Stats; features: LM +Stats; value: 0.456004967262" role="graphics-symbol" aria-roledescription="bar" d="M221,163.1985098212642h18v136.8014901787358h-18Z" fill="#8c564b"/><path aria-label="Features: LM +Topics 1K; features: LM +Topics 1K; value: 0.446298586752" role="graphics-symbol" aria-roledescription="bar" d="M241,166.11042397453315h18v133.88957602546685h-18Z" fill="#e377c2"/><path aria-label="Features: LM +Title; features: LM +Title; value: 0.446298586752" role="graphics-symbol" aria-roledescription="bar" d="M261,166.11042397453315h18v133.88957602546685h-18Z" fill="#f7b6d2"/><path aria-label="Features: LM +Context; features: LM +Context; value: 0.471571908888" role="graphics-symbol" aria-roledescription="bar" d="M201,158.5284273335765h18v141.4715726664235h-18Z" fill="#c5b0d5"/><path aria-label="Features: LM +Subject ID; features: LM +Subject ID; value: 0.507985128207" role="graphics-symbol" aria-roledescription="bar" d="M181,147.6044615379677h18v152.3955384620323h-18Z" fill="#ff9896"/><path aria-label="Features: LM +Baseline; features: LM +Baseline; value: 0.446298586752" role="graphics-symbol" aria-roledescription="bar" d="M281,166.11042397453315h18v133.88957602546685h-18Z" fill="#7f7f7f"/><path aria-label="Features: LM +IRT; features: LM +IRT; value: 0.809070411482" role="graphics-symbol" aria-roledescription="bar" d="M121,57.27887655533566h18v242.72112344466433h-18Z" fill="#98df8a"/><path aria-label="Features: LM All; features: LM All; value: 0.822603158345" role="graphics-symbol" aria-roledescription="bar" d="M61,53.219052496384236h18v246.78094750361578h-18Z" fill="#2ca02c"/></g><g class="mark-group role-title"><g transform="translate(150,-41)"><path class="background" aria-hidden="true" d="M0,0h0v0h0Z" pointer-events="none"/><g><g class="mark-text role-title-text" role="graphics-symbol" aria-roledescription="title" aria-label="Title text 'Macro F1'" pointer-events="none"><text text-anchor="middle" transform="translate(0,20)" font-family="sans-serif" font-size="25px" font-weight="bold" fill="#000" opacity="1">Macro F1</text></g></g><path class="foreground" aria-hidden="true" d="" pointer-events="none" display="none"/></g></g></g><path class="foreground" aria-hidden="true" d="" display="none"/></g></g><g class="mark-group role-scope concat_2_group" role="graphics-object" aria-roledescription="group mark container"><g transform="translate(738,0)"><path class="background" aria-hidden="true" d="M0.5,0.5h300v300h-300Z" stroke="#ddd"/><g><g class="mark-group role-axis" aria-hidden="true"><g transform="translate(0.5,0.5)"><path class="background" aria-hidden="true" d="M0,0h0v0h0Z" pointer-events="none"/><g><g class="mark-rule role-axis-grid" pointer-events="none"><line transform="translate(0,300)" x2="300" y2="0" stroke="#ddd" stroke-width="1" opacity="1"/><line transform="translate(0,270)" x2="300" y2="0" stroke="#ddd" stroke-width="1" opacity="1"/><line transform="translate(0,240)" x2="300" y2="0" stroke="#ddd" stroke-width="1" opacity="1"/><line transform="translate(0,210)" x2="300" y2="0" stroke="#ddd" stroke-width="1" opacity="1"/><line transform="translate(0,180)" x2="300" y2="0" stroke="#ddd" stroke-width="1" opacity="1"/><line transform="translate(0,150)" x2="300" y2="0" stroke="#ddd" stroke-width="1" opacity="1"/><line transform="translate(0,120)" x2="300" y2="0" stroke="#ddd" stroke-width="1" opacity="1"/><line transform="translate(0,90)" x2="300" y2="0" stroke="#ddd" stroke-width="1" opacity="1"/><line transform="translate(0,60)" x2="300" y2="0" stroke="#ddd" stroke-width="1" opacity="1"/><line transform="translate(0,30)" x2="300" y2="0" stroke="#ddd" stroke-width="1" opacity="1"/><line transform="translate(0,0)" x2="300" y2="0" stroke="#ddd" stroke-width="1" opacity="1"/></g></g><path class="foreground" aria-hidden="true" d="" pointer-events="none" display="none"/></g></g><g class="mark-group role-axis" role="graphics-symbol" aria-roledescription="axis" aria-label="X-axis for a discrete scale with 15 values: IRT-Vec, IRT-Feas, IRT-Disc, IRT-Base, LM +IRT, ending with LM +Context"><g transform="translate(0.5,300.5)"><path class="background" aria-hidden="true" d="M0,0h0v0h0Z" pointer-events="none"/><g><g class="mark-rule role-axis-tick" pointer-events="none"><line transform="translate(10,0)" x2="0" y2="5" stroke="#888" stroke-width="1" opacity="1"/><line transform="translate(30,0)" x2="0" y2="5" stroke="#888" stroke-width="1" opacity="1"/><line transform="translate(50,0)" x2="0" y2="5" stroke="#888" stroke-width="1" opacity="1"/><line transform="translate(70,0)" x2="0" y2="5" stroke="#888" stroke-width="1" opacity="1"/><line transform="translate(90,0)" x2="0" y2="5" stroke="#888" stroke-width="1" opacity="1"/><line transform="translate(110,0)" x2="0" y2="5" stroke="#888" stroke-width="1" opacity="1"/><line transform="translate(130,0)" x2="0" y2="5" stroke="#888" stroke-width="1" opacity="1"/><line transform="translate(150,0)" x2="0" y2="5" stroke="#888" stroke-width="1" opacity="1"/><line transform="translate(170,0)" x2="0" y2="5" stroke="#888" stroke-width="1" opacity="1"/><line transform="translate(190,0)" x2="0" y2="5" stroke="#888" stroke-width="1" opacity="1"/><line transform="translate(210,0)" x2="0" y2="5" stroke="#888" stroke-width="1" opacity="1"/><line transform="translate(230,0)" x2="0" y2="5" stroke="#888" stroke-width="1" opacity="1"/><line transform="translate(250,0)" x2="0" y2="5" stroke="#888" stroke-width="1" opacity="1"/><line transform="translate(270,0)" x2="0" y2="5" stroke="#888" stroke-width="1" opacity="1"/><line transform="translate(290,0)" x2="0" y2="5" stroke="#888" stroke-width="1" opacity="1"/></g><g class="mark-rule role-axis-domain" pointer-events="none"><line transform="translate(0,0)" x2="300" y2="0" stroke="#888" stroke-width="1" opacity="1"/></g></g><path class="foreground" aria-hidden="true" d="" pointer-events="none" display="none"/></g></g><g class="mark-group role-axis" role="graphics-symbol" aria-roledescription="axis" aria-label="Y-axis for a linear scale with values from 0.0 to 1.0"><g transform="translate(0.5,0.5)"><path class="background" aria-hidden="true" d="M0,0h0v0h0Z" pointer-events="none"/><g><g class="mark-rule role-axis-tick" pointer-events="none"><line transform="translate(0,300)" x2="-5" y2="0" stroke="#888" stroke-width="1" opacity="1"/><line transform="translate(0,270)" x2="-5" y2="0" stroke="#888" stroke-width="1" opacity="1"/><line transform="translate(0,240)" x2="-5" y2="0" stroke="#888" stroke-width="1" opacity="1"/><line transform="translate(0,210)" x2="-5" y2="0" stroke="#888" stroke-width="1" opacity="1"/><line transform="translate(0,180)" x2="-5" y2="0" stroke="#888" stroke-width="1" opacity="1"/><line transform="translate(0,150)" x2="-5" y2="0" stroke="#888" stroke-width="1" opacity="1"/><line transform="translate(0,120)" x2="-5" y2="0" stroke="#888" stroke-width="1" opacity="1"/><line transform="translate(0,90)" x2="-5" y2="0" stroke="#888" stroke-width="1" opacity="1"/><line transform="translate(0,60)" x2="-5" y2="0" stroke="#888" stroke-width="1" opacity="1"/><line transform="translate(0,30)" x2="-5" y2="0" stroke="#888" stroke-width="1" opacity="1"/><line transform="translate(0,0)" x2="-5" y2="0" stroke="#888" stroke-width="1" opacity="1"/></g><g class="mark-text role-axis-label" pointer-events="none"><text text-anchor="end" transform="translate(-7,308)" font-family="sans-serif" font-size="25px" fill="#000" opacity="1">0.0</text><text text-anchor="end" transform="translate(-7,278)" font-family="sans-serif" font-size="25px" fill="#000" opacity="1">0.1</text><text text-anchor="end" transform="translate(-7,248)" font-family="sans-serif" font-size="25px" fill="#000" opacity="1">0.2</text><text text-anchor="end" transform="translate(-7,218)" font-family="sans-serif" font-size="25px" fill="#000" opacity="1">0.3</text><text text-anchor="end" transform="translate(-7,188)" font-family="sans-serif" font-size="25px" fill="#000" opacity="1">0.4</text><text text-anchor="end" transform="translate(-7,158)" font-family="sans-serif" font-size="25px" fill="#000" opacity="1">0.5</text><text text-anchor="end" transform="translate(-7,128)" font-family="sans-serif" font-size="25px" fill="#000" opacity="1">0.6</text><text text-anchor="end" transform="translate(-7,98.00000000000001)" font-family="sans-serif" font-size="25px" fill="#000" opacity="1">0.7</text><text text-anchor="end" transform="translate(-7,67.99999999999999)" font-family="sans-serif" font-size="25px" fill="#000" opacity="1">0.8</text><text text-anchor="end" transform="translate(-7,37.99999999999999)" font-family="sans-serif" font-size="25px" fill="#000" opacity="1">0.9</text><text text-anchor="end" transform="translate(-7,8)" font-family="sans-serif" font-size="25px" fill="#000" opacity="1">1.0</text></g><g class="mark-rule role-axis-domain" pointer-events="none"><line transform="translate(0,300)" x2="0" y2="-300" stroke="#888" stroke-width="1" opacity="1"/></g></g><path class="foreground" aria-hidden="true" d="" pointer-events="none" display="none"/></g></g><g class="mark-rect role-mark concat_2_marks" role="graphics-object" aria-roledescription="rect mark container"><path aria-label="Features: IRT-Base; features: IRT-Base; value: 0.895017681893" role="graphics-symbol" aria-roledescription="bar" d="M61,31.494695432003173h18v268.5053045679968h-18Z" fill="#ffbb78"/><path aria-label="Features: IRT-Disc; features: IRT-Disc; value: 0.897952457679" role="graphics-symbol" aria-roledescription="bar" d="M41,30.614262696436423h18v269.3857373035636h-18Z" fill="#ff7f0e"/><path aria-label="Features: IRT-Feas; features: IRT-Feas; value: 0.903665069367" role="graphics-symbol" aria-roledescription="bar" d="M21,28.900479189771712h18v271.0995208102283h-18Z" fill="#aec7e8"/><path aria-label="Features: IRT-Vec; features: IRT-Vec; value: 0.914017870221" role="graphics-symbol" aria-roledescription="bar" d="M1,25.794638933645807h18v274.2053610663542h-18Z" fill="#1f77b4"/><path aria-label="Features: LM +Question; features: LM +Question; value: 0.840596162297" role="graphics-symbol" aria-roledescription="bar" d="M161,47.82115131097115h18v252.17884868902885h-18Z" fill="#9467bd"/><path aria-label="Features: LM +Subj &amp; Item ID; features: LM +Subj &amp; Item ID; value: 0.886134884597" role="graphics-symbol" aria-roledescription="bar" d="M121,34.15953462093788h18v265.8404653790621h-18Z" fill="#c49c94"/><path aria-label="Features: LM +Item ID; features: LM +Item ID; value: 0.870906484756" role="graphics-symbol" aria-roledescription="bar" d="M141,38.72805457322816h18v261.2719454267718h-18Z" fill="#d62728"/><path aria-label="Features: LM +Stats; features: LM +Stats; value: 0.806278641528" role="graphics-symbol" aria-roledescription="bar" d="M201,58.11640754148443h18v241.88359245851558h-18Z" fill="#8c564b"/><path aria-label="Features: LM +Topics 1K; features: LM +Topics 1K; value: 0.806027537718" role="graphics-symbol" aria-roledescription="bar" d="M221,58.19173868463455h18v241.80826131536546h-18Z" fill="#e377c2"/><path aria-label="Features: LM +Title; features: LM +Title; value: 0.806027537718" role="graphics-symbol" aria-roledescription="bar" d="M241,58.19173868463455h18v241.80826131536546h-18Z" fill="#f7b6d2"/><path aria-label="Features: LM +Context; features: LM +Context; value: 0.804976040511" role="graphics-symbol" aria-roledescription="bar" d="M281,58.50718784657556h18v241.49281215342444h-18Z" fill="#c5b0d5"/><path aria-label="Features: LM +Subject ID; features: LM +Subject ID; value: 0.817871267446" role="graphics-symbol" aria-roledescription="bar" d="M181,54.638619766054944h18v245.36138023394506h-18Z" fill="#ff9896"/><path aria-label="Features: LM +Baseline; features: LM +Baseline; value: 0.806027537718" role="graphics-symbol" aria-roledescription="bar" d="M261,58.19173868463455h18v241.80826131536546h-18Z" fill="#7f7f7f"/><path aria-label="Features: LM +IRT; features: LM +IRT; value: 0.891936428885" role="graphics-symbol" aria-roledescription="bar" d="M81,32.4190713344075h18v267.5809286655925h-18Z" fill="#98df8a"/><path aria-label="Features: LM All; features: LM All; value: 0.887767059365" role="graphics-symbol" aria-roledescription="bar" d="M101,33.66988219046223h18v266.3301178095378h-18Z" fill="#2ca02c"/></g><g class="mark-group role-title"><g transform="translate(150,-41)"><path class="background" aria-hidden="true" d="M0,0h0v0h0Z" pointer-events="none"/><g><g class="mark-text role-title-text" role="graphics-symbol" aria-roledescription="title" aria-label="Title text 'Accuracy'" pointer-events="none"><text text-anchor="middle" transform="translate(0,20)" font-family="sans-serif" font-size="25px" font-weight="bold" fill="#000" opacity="1">Accuracy</text></g></g><path class="foreground" aria-hidden="true" d="" pointer-events="none" display="none"/></g></g></g><path class="foreground" aria-hidden="true" d="" display="none"/></g></g><g class="mark-group role-legend" role="graphics-symbol" aria-roledescription="legend" aria-label="Symbol legend titled 'Features' for fill color with 15 values: IRT-Vec, IRT-Feas, IRT-Disc, IRT-Base, LM All, ending with LM +Baseline"><g transform="translate(1057,0)"><path class="background" aria-hidden="true" d="M0,0h506v252h-506Z" pointer-events="none"/><g><g class="mark-group role-legend-entry"><g transform="translate(0,30)"><path class="background" aria-hidden="true" d="M0,0h0v0h0Z" pointer-events="none"/><g><g class="mark-group role-scope" role="graphics-object" aria-roledescription="group mark container"><g transform="translate(0,0.25)"><path class="background" aria-hidden="true" d="M0,0h222v25.5h-222Z" pointer-events="none" opacity="1"/><g><g class="mark-symbol role-legend-symbol" pointer-events="none"><path transform="translate(12.5,12.5)" d="M-5,-5h10v10h-10Z" fill="#1f77b4" stroke-width="1.5" opacity="1"/></g><g class="mark-text role-legend-label" pointer-events="none"><text text-anchor="start" transform="translate(29,20.5)" font-family="sans-serif" font-size="25px" fill="#000" opacity="1">IRT-Vec</text></g></g><path class="foreground" aria-hidden="true" d="" pointer-events="none" display="none"/></g><g transform="translate(232,0.25)"><path class="background" aria-hidden="true" d="M0,0h274v25.5h-274Z" pointer-events="none" opacity="1"/><g><g class="mark-symbol role-legend-symbol" pointer-events="none"><path transform="translate(12.5,12.5)" d="M-5,-5h10v10h-10Z" fill="#9467bd" stroke-width="1.5" opacity="1"/></g><g class="mark-text role-legend-label" pointer-events="none"><text text-anchor="start" transform="translate(29,20.5)" font-family="sans-serif" font-size="25px" fill="#000" opacity="1">LM +Question</text></g></g><path class="foreground" aria-hidden="true" d="" pointer-events="none" display="none"/></g><g transform="translate(0,28)"><path class="background" aria-hidden="true" d="M0,0h222v25.5h-222Z" pointer-events="none" opacity="1"/><g><g class="mark-symbol role-legend-symbol" pointer-events="none"><path transform="translate(12.5,12.5)" d="M-5,-5h10v10h-10Z" fill="#aec7e8" stroke-width="1.5" opacity="1"/></g><g class="mark-text role-legend-label" pointer-events="none"><text text-anchor="start" transform="translate(29,20.5)" font-family="sans-serif" font-size="25px" fill="#000" opacity="1">IRT-Feas</text></g></g><path class="foreground" aria-hidden="true" d="" pointer-events="none" display="none"/></g><g transform="translate(232,28)"><path class="background" aria-hidden="true" d="M0,0h274v25.5h-274Z" pointer-events="none" opacity="1"/><g><g class="mark-symbol role-legend-symbol" pointer-events="none"><path transform="translate(12.5,12.5)" d="M-5,-5h10v10h-10Z" fill="#c5b0d5" stroke-width="1.5" opacity="1"/></g><g class="mark-text role-legend-label" pointer-events="none"><text text-anchor="start" transform="translate(29,20.5)" font-family="sans-serif" font-size="25px" fill="#000" opacity="1">LM +Context</text></g></g><path class="foreground" aria-hidden="true" d="" pointer-events="none" display="none"/></g><g transform="translate(0,56)"><path class="background" aria-hidden="true" d="M0,0h222v25.5h-222Z" pointer-events="none" opacity="1"/><g><g class="mark-symbol role-legend-symbol" pointer-events="none"><path transform="translate(12.5,12.5)" d="M-5,-5h10v10h-10Z" fill="#ff7f0e" stroke-width="1.5" opacity="1"/></g><g class="mark-text role-legend-label" pointer-events="none"><text text-anchor="start" transform="translate(29,20.5)" font-family="sans-serif" font-size="25px" fill="#000" opacity="1">IRT-Disc</text></g></g><path class="foreground" aria-hidden="true" d="" pointer-events="none" display="none"/></g><g transform="translate(232,56)"><path class="background" aria-hidden="true" d="M0,0h274v25.5h-274Z" pointer-events="none" opacity="1"/><g><g class="mark-symbol role-legend-symbol" pointer-events="none"><path transform="translate(12.5,12.5)" d="M-5,-5h10v10h-10Z" fill="#8c564b" stroke-width="1.5" opacity="1"/></g><g class="mark-text role-legend-label" pointer-events="none"><text text-anchor="start" transform="translate(29,20.5)" font-family="sans-serif" font-size="25px" fill="#000" opacity="1">LM +Stats</text></g></g><path class="foreground" aria-hidden="true" d="" pointer-events="none" display="none"/></g><g transform="translate(0,84)"><path class="background" aria-hidden="true" d="M0,0h222v25.5h-222Z" pointer-events="none" opacity="1"/><g><g class="mark-symbol role-legend-symbol" pointer-events="none"><path transform="translate(12.5,12.5)" d="M-5,-5h10v10h-10Z" fill="#ffbb78" stroke-width="1.5" opacity="1"/></g><g class="mark-text role-legend-label" pointer-events="none"><text text-anchor="start" transform="translate(29,20.5)" font-family="sans-serif" font-size="25px" fill="#000" opacity="1">IRT-Base</text></g></g><path class="foreground" aria-hidden="true" d="" pointer-events="none" display="none"/></g><g transform="translate(232,84)"><path class="background" aria-hidden="true" d="M0,0h274v25.5h-274Z" pointer-events="none" opacity="1"/><g><g class="mark-symbol role-legend-symbol" pointer-events="none"><path transform="translate(12.5,12.5)" d="M-5,-5h10v10h-10Z" fill="#c49c94" stroke-width="1.5" opacity="1"/></g><g class="mark-text role-legend-label" pointer-events="none"><text text-anchor="start" transform="translate(29,20.5)" font-family="sans-serif" font-size="25px" fill="#000" opacity="1">LM +Subj &amp; Item ID</text></g></g><path class="foreground" aria-hidden="true" d="" pointer-events="none" display="none"/></g><g transform="translate(0,112)"><path class="background" aria-hidden="true" d="M0,0h222v25.5h-222Z" pointer-events="none" opacity="1"/><g><g class="mark-symbol role-legend-symbol" pointer-events="none"><path transform="translate(12.5,12.5)" d="M-5,-5h10v10h-10Z" fill="#2ca02c" stroke-width="1.5" opacity="1"/></g><g class="mark-text role-legend-label" pointer-events="none"><text text-anchor="start" transform="translate(29,20.5)" font-family="sans-serif" font-size="25px" fill="#000" opacity="1">LM All</text></g></g><path class="foreground" aria-hidden="true" d="" pointer-events="none" display="none"/></g><g transform="translate(232,112)"><path class="background" aria-hidden="true" d="M0,0h274v25.5h-274Z" pointer-events="none" opacity="1"/><g><g class="mark-symbol role-legend-symbol" pointer-events="none"><path transform="translate(12.5,12.5)" d="M-5,-5h10v10h-10Z" fill="#e377c2" stroke-width="1.5" opacity="1"/></g><g class="mark-text role-legend-label" pointer-events="none"><text text-anchor="start" transform="translate(29,20.5)" font-family="sans-serif" font-size="25px" fill="#000" opacity="1">LM +Topics 1K</text></g></g><path class="foreground" aria-hidden="true" d="" pointer-events="none" display="none"/></g><g transform="translate(0,140)"><path class="background" aria-hidden="true" d="M0,0h222v25.5h-222Z" pointer-events="none" opacity="1"/><g><g class="mark-symbol role-legend-symbol" pointer-events="none"><path transform="translate(12.5,12.5)" d="M-5,-5h10v10h-10Z" fill="#98df8a" stroke-width="1.5" opacity="1"/></g><g class="mark-text role-legend-label" pointer-events="none"><text text-anchor="start" transform="translate(29,20.5)" font-family="sans-serif" font-size="25px" fill="#000" opacity="1">LM +IRT</text></g></g><path class="foreground" aria-hidden="true" d="" pointer-events="none" display="none"/></g><g transform="translate(232,140)"><path class="background" aria-hidden="true" d="M0,0h274v25.5h-274Z" pointer-events="none" opacity="1"/><g><g class="mark-symbol role-legend-symbol" pointer-events="none"><path transform="translate(12.5,12.5)" d="M-5,-5h10v10h-10Z" fill="#f7b6d2" stroke-width="1.5" opacity="1"/></g><g class="mark-text role-legend-label" pointer-events="none"><text text-anchor="start" transform="translate(29,20.5)" font-family="sans-serif" font-size="25px" fill="#000" opacity="1">LM +Title</text></g></g><path class="foreground" aria-hidden="true" d="" pointer-events="none" display="none"/></g><g transform="translate(0,168)"><path class="background" aria-hidden="true" d="M0,0h222v25.5h-222Z" pointer-events="none" opacity="1"/><g><g class="mark-symbol role-legend-symbol" pointer-events="none"><path transform="translate(12.5,12.5)" d="M-5,-5h10v10h-10Z" fill="#d62728" stroke-width="1.5" opacity="1"/></g><g class="mark-text role-legend-label" pointer-events="none"><text text-anchor="start" transform="translate(29,20.5)" font-family="sans-serif" font-size="25px" fill="#000" opacity="1">LM +Item ID</text></g></g><path class="foreground" aria-hidden="true" d="" pointer-events="none" display="none"/></g><g transform="translate(232,168)"><path class="background" aria-hidden="true" d="M0,0h274v25.5h-274Z" pointer-events="none" opacity="1"/><g><g class="mark-symbol role-legend-symbol" pointer-events="none"><path transform="translate(12.5,12.5)" d="M-5,-5h10v10h-10Z" fill="#7f7f7f" stroke-width="1.5" opacity="1"/></g><g class="mark-text role-legend-label" pointer-events="none"><text text-anchor="start" transform="translate(29,20.5)" font-family="sans-serif" font-size="25px" fill="#000" opacity="1">LM +Baseline</text></g></g><path class="foreground" aria-hidden="true" d="" pointer-events="none" display="none"/></g><g transform="translate(0,196)"><path class="background" aria-hidden="true" d="M0,0h222v25.5h-222Z" pointer-events="none" opacity="1"/><g><g class="mark-symbol role-legend-symbol" pointer-events="none"><path transform="translate(12.5,12.5)" d="M-5,-5h10v10h-10Z" fill="#ff9896" stroke-width="1.5" opacity="1"/></g><g class="mark-text role-legend-label" pointer-events="none"><text text-anchor="start" transform="translate(29,20.5)" font-family="sans-serif" font-size="25px" fill="#000" opacity="1">LM +Subject ID</text></g></g><path class="foreground" aria-hidden="true" d="" pointer-events="none" display="none"/></g></g></g><path class="foreground" aria-hidden="true" d="" pointer-events="none" display="none"/></g></g><g class="mark-text role-legend-title" pointer-events="none"><text text-anchor="start" transform="translate(0,20)" font-family="sans-serif" font-size="25px" font-weight="bold" fill="#000" opacity="1">Features</text></g></g><path class="foreground" aria-hidden="true" d="" pointer-events="none" display="none"/></g></g></g><path class="foreground" aria-hidden="true" d="" display="none"/></g></g></g></svg>